<?xml version="1.0" encoding="UTF-8"?>
<svg id="Layer_1" xmlns="http://www.w3.org/2000/svg" width="23.7" height="23.7" version="1.1" xmlns:xlink="http://www.w3.org/1999/xlink" viewBox="0 0 23.7 23.7">
  <!-- Generator: Adobe Illustrator 29.2.1, SVG Export Plug-In . SVG Version: 2.1.0 Build 116)  -->
  <defs>
    <linearGradient id="linear-gradient" x1="20.503" y1="113.85" x2="3.197" y2="113.85" gradientTransform="translate(125.7 23.7) rotate(-90) scale(1 -1)" gradientUnits="userSpaceOnUse">
      <stop offset="0" stop-color="#3b3b3b"/>
      <stop offset="1" stop-color="#000"/>
    </linearGradient>
  </defs>
  <g>
    <polygon points="5.897 1.558 0 11.794 5.897 22.142 11.85 22.142 11.85 1.558 5.897 1.558" fill="#4d4d4d"/>
    <polygon points="11.85 22.142 17.802 22.142 23.7 11.906 17.802 1.558 11.85 1.558 11.85 22.142" fill="#4d4d4d"/>
  </g>
  <polygon points="17.364 21.384 6.336 21.384 .873 11.798 6.336 2.316 17.364 2.316 22.827 11.902 17.364 21.384" fill="#787878"/>
  <polygon points="17.1 2.772 6.6 2.772 1.398 11.801 1.426 11.85 22.274 11.85 17.1 2.772" fill="#5e5e5e"/>
  <polygon points="1.426 11.85 6.6 20.928 17.1 20.928 22.302 11.899 22.274 11.85 1.426 11.85" fill="#404040"/>
  <polygon points="16.86 20.503 6.84 20.503 1.779 11.799 6.84 3.197 16.86 3.197 21.921 11.901 16.86 20.503" fill="url(#linear-gradient)"/>
</svg>