<?xml version="1.0" encoding="UTF-8" standalone="no"?>
<!-- Created with Inkscape (http://www.inkscape.org/) -->

<svg
   width="101.6mm"
   height="128.5mm"
   viewBox="0 0 101.60001 128.50002"
   version="1.1"
   id="svg8"
   inkscape:version="1.3.1 (9b9bdc1480, 2023-11-25, custom)"
   sodipodi:docname="PostHumanFM.svg"
   xml:space="preserve"
   xmlns:inkscape="http://www.inkscape.org/namespaces/inkscape"
   xmlns:sodipodi="http://sodipodi.sourceforge.net/DTD/sodipodi-0.dtd"
   xmlns:xlink="http://www.w3.org/1999/xlink"
   xmlns="http://www.w3.org/2000/svg"
   xmlns:svg="http://www.w3.org/2000/svg"
   xmlns:rdf="http://www.w3.org/1999/02/22-rdf-syntax-ns#"
   xmlns:cc="http://creativecommons.org/ns#"
   xmlns:dc="http://purl.org/dc/elements/1.1/"><defs
     id="defs2"><rect
       x="28.938314"
       y="76.674248"
       width="57.331367"
       height="16.59318"
       id="rect39" /><rect
       x="33.22205"
       y="26.533218"
       width="52.799999"
       height="16.666782"
       id="rect9" /><linearGradient
       id="linearGradient9"
       inkscape:collect="always"><stop
         style="stop-color:#e4e4e4;stop-opacity:1;"
         offset="0"
         id="stop9" /><stop
         style="stop-color:#cccccc;stop-opacity:1;"
         offset="1"
         id="stop6" /></linearGradient><linearGradient
       id="linearGradient7"
       inkscape:collect="always"><stop
         style="stop-color:#000000;stop-opacity:1;"
         offset="0"
         id="stop7" /><stop
         style="stop-color:#000000;stop-opacity:0;"
         offset="1"
         id="stop8" /></linearGradient><rect
       x="68.463486"
       y="0"
       width="133.37801"
       height="12.274225"
       id="rect7" /><rect
       x="81.840111"
       y="19.200001"
       width="109.78193"
       height="19.200001"
       id="rect5" /><rect
       x="38.022053"
       y="-12.90312"
       width="177.99867"
       height="70.503197"
       id="rect4" /><rect
       x="19.200003"
       y="211.2"
       width="51.438469"
       height="31.634649"
       id="rect6" /><rect
       x="27.611494"
       y="18.897638"
       width="129.95511"
       height="48.292171"
       id="rect3" /><rect
       x="43.5798"
       y="112.5558"
       width="91.414619"
       height="27.963169"
       id="rect1" /><rect
       x="19.200003"
       y="211.2"
       width="51.438469"
       height="31.634649"
       id="rect6-1" /><rect
       x="19.200003"
       y="211.2"
       width="51.438469"
       height="31.634649"
       id="rect6-1-3" /><rect
       x="19.200003"
       y="211.2"
       width="51.438469"
       height="31.634649"
       id="rect6-1-3-7" /><rect
       x="19.200003"
       y="211.2"
       width="51.438469"
       height="31.634649"
       id="rect6-0" /><rect
       x="19.200003"
       y="211.2"
       width="51.438469"
       height="31.634649"
       id="rect6-0-3" /><rect
       x="19.200003"
       y="211.2"
       width="51.438469"
       height="31.634649"
       id="rect6-0-3-1" /><rect
       x="19.200003"
       y="211.2"
       width="51.438469"
       height="31.634649"
       id="rect6-0-3-1-9" /><rect
       x="19.200003"
       y="211.2"
       width="51.438469"
       height="31.634649"
       id="rect6-0-4" /><rect
       x="19.200003"
       y="211.2"
       width="51.438469"
       height="31.634649"
       id="rect6-0-4-0" /><rect
       x="19.200003"
       y="211.2"
       width="51.438469"
       height="31.634649"
       id="rect6-0-4-0-6" /><linearGradient
       inkscape:collect="always"
       xlink:href="#linearGradient7"
       id="linearGradient8"
       x1="69.756218"
       y1="7.364984"
       x2="150.756"
       y2="7.364984"
       gradientUnits="userSpaceOnUse" /><linearGradient
       inkscape:collect="always"
       xlink:href="#linearGradient9"
       id="linearGradient10"
       x1="81.18"
       y1="0"
       x2="81.18"
       y2="128.5"
       gradientUnits="userSpaceOnUse"
       gradientTransform="scale(0.62500005,1)" /><rect
       x="68.463486"
       y="0"
       width="133.37801"
       height="12.274225"
       id="rect7-3" /><rect
       x="68.463486"
       y="0"
       width="24.20137"
       height="9.0138893"
       id="rect7-3-3" /><rect
       x="68.463486"
       y="0"
       width="24.20137"
       height="9.0138893"
       id="rect7-3-3-2" /><rect
       x="68.463486"
       y="0"
       width="24.20137"
       height="9.0138893"
       id="rect7-3-3-2-2" /><rect
       x="68.463486"
       y="0"
       width="24.20137"
       height="9.0138893"
       id="rect7-3-3-2-2-9" /><rect
       x="68.463486"
       y="0"
       width="24.20137"
       height="9.0138893"
       id="rect7-3-3-2-2-9-0" /><rect
       x="68.463486"
       y="0"
       width="24.20137"
       height="9.0138893"
       id="rect7-3-3-2-2-6" /><rect
       x="68.463486"
       y="0"
       width="47.161766"
       height="8.182024"
       id="rect7-3-3-2-2-7" /><rect
       x="68.463486"
       y="0"
       width="6.3771291"
       height="7.9424253"
       id="rect7-3-3-2-2-7-2" /><linearGradient
       id="SVGID_1_"
       gradientUnits="userSpaceOnUse"
       x1="14.17379"
       y1="1.9999999e-05"
       x2="14.17379"
       y2="28.347719">
		<stop
   offset="0"
   style="stop-color:#B0ACAE"
   id="stop1" />
		<stop
   offset="1"
   style="stop-color:#000000"
   id="stop2" />
	</linearGradient><linearGradient
       id="SVGID_2_"
       gradientUnits="userSpaceOnUse"
       x1="5.12815"
       y1="-4117.3818"
       x2="27.655621"
       y2="-4117.3818"
       gradientTransform="rotate(90,-2050.495,-2052.713)">
		<stop
   offset="0"
   style="stop-color:#232223"
   id="stop3" />
		<stop
   offset="1"
   style="stop-color:#1F1E1F"
   id="stop4" />
	</linearGradient><linearGradient
       id="SVGID_1_-9"
       gradientUnits="userSpaceOnUse"
       x1="14.17379"
       y1="1.9999999e-05"
       x2="14.17379"
       y2="28.347719">
		<stop
   offset="0"
   style="stop-color:#B0ACAE"
   id="stop1-2" />
		<stop
   offset="1"
   style="stop-color:#000000"
   id="stop2-0" />
	</linearGradient><linearGradient
       id="SVGID_1_-3"
       gradientUnits="userSpaceOnUse"
       x1="14.17379"
       y1="1.9999999e-05"
       x2="14.17379"
       y2="28.347719">
		<stop
   offset="0"
   style="stop-color:#B0ACAE"
   id="stop1-1" />
		<stop
   offset="1"
   style="stop-color:#000000"
   id="stop2-9" />
	</linearGradient><linearGradient
       id="SVGID_1_-3-1"
       gradientUnits="userSpaceOnUse"
       x1="14.17379"
       y1="1.9999999e-05"
       x2="14.17379"
       y2="28.347719">
		<stop
   offset="0"
   style="stop-color:#B0ACAE"
   id="stop1-1-5" />
		<stop
   offset="1"
   style="stop-color:#000000"
   id="stop2-9-5" />
	</linearGradient><linearGradient
       id="uuid-f0636bc7-c65b-4b70-b857-f875576c11d6"
       x1="37.5"
       y1="0"
       x2="37.5"
       y2="380"
       gradientUnits="userSpaceOnUse"><stop
         offset="0"
         stop-color="#ebebeb"
         id="stop2-4" /><stop
         offset="1"
         stop-color="#e1e1e1"
         id="stop4-3" /></linearGradient></defs><sodipodi:namedview
     id="base"
     pagecolor="#ffffff"
     bordercolor="#666666"
     borderopacity="1.0"
     inkscape:pageopacity="0.0"
     inkscape:pageshadow="2"
     inkscape:zoom="2.0792405"
     inkscape:cx="75.267868"
     inkscape:cy="261.87447"
     inkscape:document-units="mm"
     inkscape:current-layer="layer5"
     showgrid="true"
     units="mm"
     inkscape:snap-bbox="true"
     inkscape:snap-page="true"
     inkscape:bbox-nodes="false"
     inkscape:snap-bbox-edge-midpoints="false"
     inkscape:window-width="3072"
     inkscape:window-height="1588"
     inkscape:window-x="0"
     inkscape:window-y="32"
     inkscape:window-maximized="1"
     inkscape:snap-bbox-midpoints="true"
     inkscape:snap-nodes="false"
     inkscape:showpageshadow="false"
     inkscape:pagecheckerboard="0"
     inkscape:deskcolor="#505050"
     showguides="false"><inkscape:grid
       id="grid2"
       units="mm"
       originx="0"
       originy="0"
       spacingx="1.2700002"
       spacingy="1.2700002"
       empcolor="#0099e5"
       empopacity="0.30196078"
       color="#0099e5"
       opacity="0.14901961"
       empspacing="4"
       dotted="false"
       gridanglex="30"
       gridanglez="30"
       visible="true"
       enabled="false" /><sodipodi:guide
       position="3.989712,109.10328"
       orientation="1,0"
       id="guide23"
       inkscape:locked="false" /><sodipodi:guide
       position="-58.42985,44.103286"
       orientation="0,-1"
       id="guide26"
       inkscape:locked="false" /><sodipodi:guide
       position="19.041925,93.073639"
       orientation="0,-1"
       id="guide28"
       inkscape:locked="false" /><sodipodi:guide
       position="9.2393314,120.5206"
       orientation="0,-1"
       id="guide36"
       inkscape:locked="false" /><sodipodi:guide
       position="15.588837,114.57238"
       orientation="0,-1"
       id="guide37"
       inkscape:locked="false" /><sodipodi:guide
       position="3.989712,117.47099"
       orientation="0,-1"
       id="guide38"
       inkscape:locked="false" /><sodipodi:guide
       position="49.308611,88.743338"
       orientation="0,-1"
       id="guide40"
       inkscape:locked="false" /></sodipodi:namedview><metadata
     id="metadata5"><rdf:RDF><cc:Work
         rdf:about=""><dc:format>image/svg+xml</dc:format><dc:type
           rdf:resource="http://purl.org/dc/dcmitype/StillImage" /></cc:Work></rdf:RDF></metadata><g
     inkscape:groupmode="layer"
     id="layer3"
     inkscape:label="Background"
     style="display:inline"><rect
       style="fill:url(#linearGradient10);fill-opacity:1;stroke-width:0.167602"
       id="rect8"
       width="101.6"
       height="128.5"
       x="0"
       y="0" /></g><g
     inkscape:label="Layer 1"
     inkscape:groupmode="layer"
     id="layer1"
     transform="translate(0,-168.49998)"><path
       d="m 26.430285,177.97592 q 0.104699,0 0.196836,-0.0393 0.0963,-0.0436 0.16334,-0.11368 0.0712,-0.0744 0.1089,-0.17069 0.0419,-0.0963 0.0419,-0.21008 0,-0.10933 -0.0419,-0.2057 -0.0377,-0.0963 -0.1089,-0.16633 -0.067,-0.0744 -0.16334,-0.11383 -0.0921,-0.0438 -0.196836,-0.0438 -0.1089,0 -0.20104,0.0438 -0.0921,0.0393 -0.16334,0.11383 -0.067,0.0699 -0.10889,0.16633 -0.0377,0.0963 -0.0377,0.2057 v 0.005 q 0,0.10949 0.0377,0.20571 0.0419,0.0963 0.10889,0.17068 0.0712,0.07 0.16334,0.11384 0.0921,0.0393 0.20104,0.0393 z m 0,-1.48805 q 0.188466,0 0.351806,0.0744 0.16753,0.0744 0.29317,0.20569 0.12565,0.13139 0.19685,0.30637 0.0712,0.17067 0.0712,0.36764 0,0.19694 -0.0712,0.37201 -0.0712,0.17506 -0.19685,0.30637 -0.12564,0.12688 -0.29317,0.20133 -0.16334,0.0744 -0.351806,0.0744 -0.29318,0 -0.51097,-0.16195 v 0.72216 q 0,0.17507 -0.11727,0.2976 -0.11727,0.12254 -0.2848,0.12254 v -0.42016 -1.51432 q 0,-0.19697 0.0712,-0.36764 0.0712,-0.17506 0.19266,-0.30637 0.12565,-0.13138 0.29318,-0.2057 0.16753,-0.0744 0.356,-0.0744 z m 4.492916,2.96299 q -0.29317,0 -0.55285,-0.11368 -0.25967,-0.11819 -0.45232,-0.31951 -0.19266,-0.2013 -0.30574,-0.47266 -0.1089,-0.27137 -0.1089,-0.57772 0,-0.30638 0.1089,-0.57335 0.11308,-0.27136 0.30574,-0.47267 0.19265,-0.20132 0.45232,-0.31513 0.25968,-0.11818 0.55285,-0.11818 0.29318,0 0.55285,0.11818 0.25967,0.11384 0.452327,0.31513 0.19265,0.20131 0.30155,0.47267 0.11308,0.26697 0.11308,0.57335 0,0.30635 -0.11308,0.57772 -0.1089,0.27136 -0.30155,0.47266 -0.192657,0.20134 -0.452327,0.31951 -0.25967,0.11368 -0.55285,0.11368 z m 0,-2.54284 q -0.20941,0 -0.39369,0.0832 -0.18428,0.0832 -0.3225,0.2276 -0.13821,0.14427 -0.21778,0.337 -0.0796,0.19258 -0.0796,0.41141 0,0.21884 0.0796,0.41578 0.0796,0.19257 0.21778,0.33702 0.13822,0.14427 0.3225,0.22759 0.18428,0.0832 0.39369,0.0832 0.20941,0 0.39369,-0.0832 0.18429,-0.0832 0.3225,-0.22759 0.13821,-0.14443 0.217787,-0.33702 0.0796,-0.19694 0.0796,-0.41578 0,-0.21883 -0.0796,-0.41141 -0.0796,-0.19257 -0.217787,-0.337 -0.13821,-0.14428 -0.3225,-0.2276 -0.18428,-0.0832 -0.39369,-0.0832 z m 4.451037,0.0744 q -0.0838,0 -0.15915,0.0306 -0.0754,0.0308 -0.13401,0.0832 -0.0544,0.048 -0.0879,0.11818 -0.0293,0.07 -0.0293,0.14894 0,0.0789 0.0293,0.14893 0.0335,0.0655 0.0879,0.11818 0.0586,0.0526 0.13401,0.0832 0.0754,0.0264 0.15915,0.0264 v 0.005 q 0.16334,0.005 0.30155,0.07 0.1424,0.0655 0.24711,0.17505 0.1089,0.10949 0.16753,0.25824 0.0628,0.14428 0.0628,0.31073 0,0.17069 -0.0628,0.3195 -0.0628,0.14894 -0.17172,0.2626 -0.1089,0.10934 -0.25548,0.17506 -0.14659,0.0613 -0.30993,0.0613 h -0.38951 -0.40207 q 0,-0.17507 0.11727,-0.2976 0.11727,-0.12254 0.2848,-0.12254 h 0.38951 q 0.0796,0 0.15076,-0.0307 0.0754,-0.0306 0.12984,-0.0832 0.0544,-0.057 0.0837,-0.12688 0.0335,-0.0744 0.0335,-0.15757 0,-0.0832 -0.0335,-0.15328 -0.0293,-0.0744 -0.0837,-0.12688 -0.0545,-0.0526 -0.12984,-0.0832 -0.0712,-0.0306 -0.15076,-0.0306 v -0.005 q -0.16334,-0.005 -0.30993,-0.0655 -0.1424,-0.0655 -0.2513,-0.17067 -0.1047,-0.10949 -0.16752,-0.25384 -0.0628,-0.14444 -0.0628,-0.30638 0,-0.1663 0.0628,-0.31075 0.067,-0.14893 0.1759,-0.25384 0.1089,-0.10949 0.25548,-0.17069 0.15077,-0.0655 0.31831,-0.0655 h 0.20941 0.18428 0.40626 q 0,0.0874 -0.0335,0.16631 -0.0293,0.0744 -0.088,0.13139 -0.0545,0.057 -0.12983,0.0919 -0.0712,0.0306 -0.15496,0.0306 z m 4.924307,-0.42453 q 0,0.17945 -0.11727,0.30198 -0.11727,0.12253 -0.28899,0.12253 h -0.40207 v 1.97386 q 0,0.17507 -0.11726,0.29762 -0.11727,0.12254 -0.2848,0.12254 v -0.42017 -1.97386 h -0.40626 q -0.16753,0 -0.2848,-0.12254 -0.11727,-0.12253 -0.11727,-0.30198 h 0.40207 1.2104 z m 4.212307,2.3984 v 0.42017 q -0.16752,0 -0.2848,-0.12253 -0.11727,-0.12253 -0.11727,-0.29764 v -0.91471 h -1.21039 v 0.91471 q 0,0.17507 -0.11727,0.29764 -0.11727,0.12253 -0.2848,0.12253 v -0.42017 -1.97387 -0.42015 q 0.16753,0 0.2848,0.12253 0.11727,0.12253 0.11727,0.29762 v 0.63461 h 1.21039 v -0.63461 q 0,-0.17509 0.11727,-0.29762 0.11727,-0.12253 0.2848,-0.12253 v 0.42015 z m 3.965207,-1.97387 q 0,-0.17506 0.11727,-0.29761 0.11727,-0.12253 0.2848,-0.12253 v 0.42015 1.26488 q 0,0.24946 -0.0796,0.46828 -0.0796,0.21884 -0.21779,0.38516 -0.13402,0.16194 -0.3183,0.25823 -0.18428,0.0919 -0.39369,0.0919 -0.209417,0 -0.393697,-0.0919 -0.18428,-0.0963 -0.32249,-0.25823 -0.13403,-0.16632 -0.2136,-0.38516 -0.0796,-0.21882 -0.0796,-0.46828 v -1.26488 -0.42015 q 0.0838,0 0.15496,0.0351 0.0754,0.0306 0.12983,0.0876 0.0586,0.057 0.0879,0.13573 0.0335,0.0744 0.0335,0.16194 v 1.26485 q 0,0.16194 0.0461,0.30637 0.0461,0.13993 0.12566,0.24946 0.0838,0.10498 0.19266,0.16633 0.113067,0.0613 0.238717,0.0613 0.12566,0 0.23454,-0.0613 0.1089,-0.0612 0.18847,-0.16633 0.0838,-0.10918 0.12984,-0.24946 0.0502,-0.14428 0.0502,-0.30637 z m 6.390187,1.97387 v 0.42017 q -0.17171,0 -0.28898,-0.12253 -0.11727,-0.12253 -0.11727,-0.29764 v -1.41365 q 0,-0.13139 -0.0503,-0.2451 -0.0461,-0.11818 -0.12984,-0.20132 -0.0796,-0.0876 -0.19265,-0.13573 -0.1089,-0.0526 -0.23454,-0.0526 -0.12566,0 -0.23455,0.0526 -0.10889,0.0481 -0.19266,0.13573 -0.0796,0.0832 -0.12983,0.20132 -0.0461,0.11384 -0.0461,0.2451 v 0.41579 q 0,0.0874 -0.0335,0.1663 -0.0293,0.0744 -0.0838,0.13558 -0.0545,0.057 -0.12983,0.0919 -0.0754,0.0307 -0.159157,0.0307 v -0.84033 q 0,-0.13138 -0.0503,-0.2451 -0.0461,-0.11818 -0.12983,-0.2013 -0.0796,-0.0876 -0.18847,-0.13573 -0.1089,-0.0526 -0.23454,-0.0526 -0.12566,0 -0.23873,0.0526 -0.1089,0.0481 -0.19266,0.13573 -0.0796,0.0832 -0.12983,0.2013 -0.0461,0.114 -0.0461,0.2451 v 1.41367 q 0,0.17506 -0.11727,0.29762 -0.11727,0.12253 -0.2848,0.12253 v -0.42015 -1.41367 q 0,-0.21882 0.0796,-0.41139 0.0796,-0.19256 0.2136,-0.33263 0.1382,-0.14428 0.32249,-0.22759 0.18429,-0.0832 0.3937,-0.0832 0.25129,0 0.4607,0.11368 0.20941,0.11384 0.347617,0.31073 0.13821,-0.19694 0.34763,-0.31073 0.20941,-0.11368 0.45651,-0.11368 0.20942,0 0.3937,0.0832 0.18428,0.0832 0.3183,0.22759 0.13821,0.13993 0.21779,0.33263 0.0796,0.19257 0.0796,0.41139 z m 4.187177,-0.9541 q 0,-0.21883 -0.0586,-0.41579 -0.0545,-0.19695 -0.15496,-0.34138 -0.0963,-0.14894 -0.22616,-0.23632 -0.12983,-0.0874 -0.27642,-0.0874 -0.146587,0 -0.276427,0.0874 -0.12983,0.0876 -0.23035,0.23632 -0.0963,0.14443 -0.15496,0.34138 -0.0586,0.19696 -0.0586,0.41579 z m 0.10052,-1.04603 q 0.15078,0.21009 0.23035,0.48142 0.0837,0.26699 0.0837,0.56461 l -0.004,0.94534 q 0,0.17946 -0.12146,0.3064 -0.11727,0.12253 -0.28899,0.12253 v -0.42893 -0.51644 h -1.436627 v 0.94537 q -0.17172,0 -0.29318,-0.12253 -0.11726,-0.12688 -0.11726,-0.3064 v -0.94534 q 0,-0.29762 0.0796,-0.56461 0.0796,-0.27133 0.23035,-0.48142 0.16334,-0.2276 0.37275,-0.34577 0.20941,-0.11818 0.448137,-0.11818 0.23873,0 0.44814,0.11818 0.20941,0.11819 0.36856,0.34577 z m 2.6501,0.73529 q 0,-0.24946 0.0796,-0.4683 0.0796,-0.21885 0.2136,-0.38078 0.1382,-0.1663 0.3183,-0.25822 0.18429,-0.0963 0.3937,-0.0963 0.20941,0 0.3895,0.0963 0.18429,0.0919 0.3225,0.25822 0.138197,0.16193 0.217777,0.38078 0.0796,0.21884 0.0796,0.4683 l 0.004,1.26922 v 0.42017 q -0.16753,0 -0.284797,-0.12253 -0.11727,-0.12253 -0.12144,-0.29762 l -0.004,-1.26922 q 0,-0.16195 -0.0503,-0.302 -0.0461,-0.14428 -0.12984,-0.24947 -0.0796,-0.10498 -0.18847,-0.16631 -0.10889,-0.0612 -0.23454,-0.0612 -0.12565,0 -0.23454,0.0612 -0.10889,0.0612 -0.19265,0.16631 -0.0796,0.10499 -0.12984,0.24947 -0.0461,0.13992 -0.0461,0.302 v 1.26922 q 0,0.17507 -0.11726,0.29762 -0.11727,0.12253 -0.28481,0.12253 v -0.42017 z m 8.701044,-1.12918 q 0,0.17507 -0.11727,0.2976 -0.11727,0.12253 -0.2848,0.12253 h -0.80833 v 0.67401 h 0.40626 q 0.16753,0 0.2848,0.12254 0.11727,0.12253 0.11727,0.29762 h -0.40208 -0.40625 v 0.87969 q 0,0.17507 -0.11727,0.29762 -0.11728,0.12254 -0.2848,0.12254 v -0.42017 -1.97386 q 0,-0.17509 0.11727,-0.29762 0.11727,-0.12254 0.2848,-0.12254 z m 5.577667,2.39402 v 0.42017 q -0.17172,0 -0.28898,-0.12253 -0.11728,-0.12253 -0.11728,-0.29764 v -1.41365 q 0,-0.13139 -0.0502,-0.2451 -0.0461,-0.11818 -0.12984,-0.20132 -0.0796,-0.0876 -0.19265,-0.13573 -0.1089,-0.0526 -0.23455,-0.0526 -0.12565,0 -0.23454,0.0526 -0.10888,0.0481 -0.19265,0.13573 -0.0796,0.0832 -0.12983,0.20132 -0.0461,0.11384 -0.0461,0.2451 v 0.41579 q 0,0.0874 -0.0335,0.1663 -0.0293,0.0744 -0.0838,0.13558 -0.0545,0.057 -0.12984,0.0919 -0.0754,0.0307 -0.159147,0.0307 v -0.84033 q 0,-0.13138 -0.0502,-0.2451 -0.0461,-0.11818 -0.12983,-0.2013 -0.0796,-0.0876 -0.18847,-0.13573 -0.1089,-0.0526 -0.23455,-0.0526 -0.12565,0 -0.23872,0.0526 -0.1089,0.0481 -0.19267,0.13573 -0.0796,0.0832 -0.12983,0.2013 -0.0461,0.114 -0.0461,0.2451 v 1.41367 q 0,0.17506 -0.11727,0.29762 -0.11727,0.12253 -0.2848,0.12253 v -0.42015 -1.41367 q 0,-0.21882 0.0796,-0.41139 0.0796,-0.19256 0.21361,-0.33263 0.13822,-0.14428 0.32249,-0.22759 0.18429,-0.0832 0.39369,-0.0832 0.2513,0 0.46071,0.11368 0.20941,0.11384 0.347617,0.31073 0.13821,-0.19694 0.34763,-0.31073 0.20941,-0.11368 0.45651,-0.11368 0.20941,0 0.3937,0.0832 0.18428,0.0832 0.3183,0.22759 0.1382,0.13993 0.21779,0.33263 0.0796,0.19257 0.0796,0.41139 z"
       id="text14"
       style="font-size:5.64444px;font-family:Urba;-inkscape-font-specification:Urba;letter-spacing:2.64583px;display:inline;stroke:#000000;stroke-width:0.157013"
       aria-label="POSTHUMAN FM" /></g><g
     inkscape:groupmode="layer"
     id="layer4"
     inkscape:label="Layer 2"><rect
       style="display:inline;fill:#b7b7b7;fill-opacity:1;stroke:none;stroke-width:0.34557;stroke-opacity:1"
       id="rect27-6-5-5"
       width="23.883787"
       height="51.43589"
       x="-27.873499"
       y="66.041718"
       rx="0.56377262"
       ry="1.7781792"
       transform="scale(-1,1)" /><rect
       style="display:inline;fill:#b7b7b7;fill-opacity:1;stroke:none;stroke-width:0.346316;stroke-opacity:1"
       id="rect27-6-5-5-7"
       width="23.883787"
       height="51.658077"
       x="-95.994034"
       y="65.819534"
       rx="0.56377262"
       ry="1.7858603"
       transform="scale(-1,1)" /><rect
       style="display:inline;fill:#b7b7b7;fill-opacity:1;stroke:none;stroke-width:0.346316;stroke-opacity:1"
       id="rect27-6-5-5-7-3"
       width="23.883787"
       height="51.658077"
       x="-95.994034"
       y="13.927635"
       rx="0.56377262"
       ry="1.7858603"
       transform="scale(-1,1)" /><rect
       style="display:inline;fill:#b7b7b7;fill-opacity:1;stroke:none;stroke-width:0.346316;stroke-opacity:1"
       id="rect27-6-5"
       width="23.883787"
       height="51.658077"
       x="-27.873499"
       y="13.92764"
       rx="0.56377262"
       ry="1.7858603"
       transform="scale(-1,1)" /><rect
       style="display:inline;fill:#000000;fill-opacity:1;stroke:none;stroke-width:0.264583;stroke-opacity:1"
       id="rect42"
       width="38.114662"
       height="32.861279"
       x="30.402212"
       y="13.997483"
       rx="0.56377256"
       ry="1.7858603" /></g><g
     inkscape:groupmode="layer"
     id="layer5"
     inkscape:label="components"><ellipse
       style="display:inline;fill:#ff0000;fill-opacity:0.991676;stroke:none;stroke-width:0.737179;stroke-linejoin:miter;stroke-dasharray:none;stroke-dashoffset:0;stroke-opacity:1;paint-order:normal"
       id="path14-7-3-2-0-9"
       cx="-21.994051"
       cy="22.209143"
       inkscape:label="op1_level"
       rx="4.520874"
       ry="4.5247064"
       transform="scale(-1,1)" /><ellipse
       style="display:inline;fill:#ff0000;fill-opacity:0.991676;stroke:none;stroke-width:0.737179;stroke-linejoin:miter;stroke-dasharray:none;stroke-dashoffset:0;stroke-opacity:1;paint-order:normal"
       id="path14-7-3-2-0-9-3"
       cx="-10.151888"
       cy="22.209143"
       inkscape:label="op1_mult"
       rx="4.520874"
       ry="4.5247064"
       transform="scale(-1,1)" /><ellipse
       style="display:inline;fill:#ff0000;fill-opacity:0.991676;stroke:none;stroke-width:0.553811;stroke-linejoin:miter;stroke-dasharray:none;stroke-dashoffset:0;stroke-opacity:1;paint-order:normal"
       id="path14-7-3-2-0-6-9-1-5-9-9-0-5"
       cx="-21.994051"
       cy="37.354465"
       inkscape:label="op1_cv_level"
       rx="3.4340017"
       ry="3.3619366"
       transform="scale(-1,1)" /><ellipse
       style="display:inline;fill:#ff0000;fill-opacity:0.991676;stroke:none;stroke-width:0.553811;stroke-linejoin:miter;stroke-dasharray:none;stroke-dashoffset:0;stroke-opacity:1;paint-order:normal"
       id="path14-7-3-2-0-6-9-1-5-9-9-0-5-0"
       cx="-10.151888"
       cy="37.354465"
       inkscape:label="op1_cv_mult"
       rx="3.4340017"
       ry="3.3619366"
       transform="scale(-1,1)" /><ellipse
       style="display:inline;fill:#00ff00;fill-opacity:0.991676;stroke:none;stroke-width:0.643432;stroke-linejoin:miter;stroke-dasharray:none;stroke-dashoffset:0;stroke-opacity:1;paint-order:normal"
       id="path14-7-3-2-0-6-9-1-5-9-9-04"
       cx="-89.854073"
       cy="50.876812"
       inkscape:label="op2_level"
       rx="3.9897113"
       ry="3.9059844"
       transform="scale(-1,1)" /><ellipse
       style="display:inline;fill:#00ff00;fill-opacity:0.991676;stroke:none;stroke-width:0.643432;stroke-linejoin:miter;stroke-dasharray:none;stroke-dashoffset:0;stroke-opacity:1;paint-order:normal"
       id="path14-7-3-2-0-6-9-1-5-9-9-0-8"
       cx="-78.011909"
       cy="50.876812"
       inkscape:label="op2_mult"
       rx="3.9897113"
       ry="3.9059844"
       transform="scale(-1,1)" /><ellipse
       style="display:inline;fill:#ff0000;fill-opacity:0.991676;stroke:none;stroke-width:0.737179;stroke-linejoin:miter;stroke-dasharray:none;stroke-dashoffset:0;stroke-opacity:1;paint-order:normal"
       id="path14-7-3-2-0-9-38-9"
       cx="-21.757969"
       cy="74.815392"
       inkscape:label="op3_level"
       rx="4.520874"
       ry="4.5247064"
       transform="scale(-1,1)" /><ellipse
       style="display:inline;fill:#ff0000;fill-opacity:0.991676;stroke:none;stroke-width:0.737179;stroke-linejoin:miter;stroke-dasharray:none;stroke-dashoffset:0;stroke-opacity:1;paint-order:normal"
       id="path14-7-3-2-0-9-3-6-7"
       cx="-9.9158049"
       cy="74.815392"
       inkscape:label="op3_mult"
       rx="4.520874"
       ry="4.5247064"
       transform="scale(-1,1)" /><ellipse
       style="display:inline;fill:#ff0000;fill-opacity:0.991676;stroke:none;stroke-width:0.553811;stroke-linejoin:miter;stroke-dasharray:none;stroke-dashoffset:0;stroke-opacity:1;paint-order:normal"
       id="path14-7-3-2-0-6-9-1-5-9-9-0-5-8-4"
       cx="-21.757969"
       cy="89.960716"
       inkscape:label="op3_cv_level"
       rx="3.4340017"
       ry="3.3619366"
       transform="scale(-1,1)" /><ellipse
       style="display:inline;fill:#ff0000;fill-opacity:0.991676;stroke:none;stroke-width:0.553811;stroke-linejoin:miter;stroke-dasharray:none;stroke-dashoffset:0;stroke-opacity:1;paint-order:normal"
       id="path14-7-3-2-0-6-9-1-5-9-9-0-5-0-8-3"
       cx="-9.9158049"
       cy="89.960716"
       inkscape:label="op3_cv_mult"
       rx="3.4340017"
       ry="3.3619366"
       transform="scale(-1,1)" /><ellipse
       style="display:inline;fill:#ff0000;fill-opacity:0.991676;stroke:none;stroke-width:0.737179;stroke-linejoin:miter;stroke-dasharray:none;stroke-dashoffset:0;stroke-opacity:1;paint-order:normal"
       id="path14-7-3-2-0-9-3-6-7-3"
       cx="-78.508507"
       cy="74.815392"
       inkscape:label="op4_mult"
       rx="4.520874"
       ry="4.5247064"
       transform="scale(-1,1)" /><ellipse
       style="display:inline;fill:#ff0000;fill-opacity:0.991676;stroke:none;stroke-width:0.737179;stroke-linejoin:miter;stroke-dasharray:none;stroke-dashoffset:0;stroke-opacity:1;paint-order:normal"
       id="path14-7-3-2-0-9-38-9-0"
       cx="-90.35067"
       cy="74.815392"
       inkscape:label="op4_level"
       rx="4.520874"
       ry="4.5247064"
       transform="scale(-1,1)" /><ellipse
       style="display:inline;fill:#ff0000;fill-opacity:0.991676;stroke:none;stroke-width:0.553811;stroke-linejoin:miter;stroke-dasharray:none;stroke-dashoffset:0;stroke-opacity:1;paint-order:normal"
       id="path14-7-3-2-0-6-9-1-5-9-9-0-5-8-4-2"
       cx="-90.35067"
       cy="89.960709"
       inkscape:label="op4_cv_level"
       rx="3.4340017"
       ry="3.3619366"
       transform="scale(-1,1)" /><ellipse
       style="display:inline;fill:#ff0000;fill-opacity:0.991676;stroke:none;stroke-width:0.553811;stroke-linejoin:miter;stroke-dasharray:none;stroke-dashoffset:0;stroke-opacity:1;paint-order:normal"
       id="path14-7-3-2-0-6-9-1-5-9-9-0-5-0-8-3-5"
       cx="-78.508507"
       cy="89.960709"
       inkscape:label="op4_cv_mult"
       rx="3.4340017"
       ry="3.3619366"
       transform="scale(-1,1)" /><ellipse
       style="display:inline;fill:#ffff00;fill-opacity:0.992157;stroke:none;stroke-width:0.643432;stroke-linejoin:miter;stroke-dasharray:none;stroke-dashoffset:0;stroke-opacity:1;paint-order:normal"
       id="path14-7-3-2-0-6-9-1"
       cx="40.851868"
       cy="59.445286"
       inkscape:label="op1_button"
       rx="3.9897113"
       ry="3.9059844" /><ellipse
       style="display:inline;fill:#ffff00;fill-opacity:0.992157;stroke:none;stroke-width:0.643432;stroke-linejoin:miter;stroke-dasharray:none;stroke-dashoffset:0;stroke-opacity:1;paint-order:normal"
       id="path14-7-3-2-0-6-9-1-4"
       cx="40.851868"
       cy="77.840622"
       inkscape:label="op3_button"
       rx="3.9897113"
       ry="3.9059844" /><ellipse
       style="display:inline;fill:#ffff00;fill-opacity:0.992157;stroke:none;stroke-width:0.643432;stroke-linejoin:miter;stroke-dasharray:none;stroke-dashoffset:0;stroke-opacity:1;paint-order:normal"
       id="path14-7-3-2-0-6-9-1-5"
       cx="59.414604"
       cy="59.445286"
       inkscape:label="op2_button"
       rx="3.9897113"
       ry="3.9059844" /><ellipse
       style="display:inline;fill:#ffff00;fill-opacity:0.992157;stroke:none;stroke-width:0.643432;stroke-linejoin:miter;stroke-dasharray:none;stroke-dashoffset:0;stroke-opacity:1;paint-order:normal"
       id="path14-7-3-2-0-6-9-1-5-9"
       cx="59.414604"
       cy="77.840622"
       inkscape:label="op4_button"
       rx="3.9897113"
       ry="3.9059844" /><ellipse
       style="display:inline;fill:#00ff00;fill-opacity:0.991676;stroke:none;stroke-width:0.643432;stroke-linejoin:miter;stroke-dasharray:none;stroke-dashoffset:0;stroke-opacity:1;paint-order:normal"
       id="path14-7-3-2-0-6-9-1-5-9-9"
       cx="-21.994051"
       cy="50.876812"
       inkscape:label="op1_level"
       rx="3.9897113"
       ry="3.9059844"
       transform="scale(-1,1)" /><ellipse
       style="display:inline;fill:#00ff00;fill-opacity:0.991676;stroke:none;stroke-width:0.643432;stroke-linejoin:miter;stroke-dasharray:none;stroke-dashoffset:0;stroke-opacity:1;paint-order:normal"
       id="path14-7-3-2-0-6-9-1-5-9-9-0"
       cx="-10.151888"
       cy="50.876812"
       inkscape:label="op1_mult"
       rx="3.9897113"
       ry="3.9059844"
       transform="scale(-1,1)" /><ellipse
       style="display:inline;fill:#ff0000;fill-opacity:0.991676;stroke:none;stroke-width:0.737179;stroke-linejoin:miter;stroke-dasharray:none;stroke-dashoffset:0;stroke-opacity:1;paint-order:normal"
       id="path14-7-3-2-0-9-38"
       cx="-89.854073"
       cy="22.209143"
       inkscape:label="op2_level"
       rx="4.520874"
       ry="4.5247064"
       transform="scale(-1,1)" /><ellipse
       style="display:inline;fill:#ff0000;fill-opacity:0.991676;stroke:none;stroke-width:0.737179;stroke-linejoin:miter;stroke-dasharray:none;stroke-dashoffset:0;stroke-opacity:1;paint-order:normal"
       id="path14-7-3-2-0-9-3-6"
       cx="-78.011909"
       cy="22.209143"
       inkscape:label="op2_mult"
       rx="4.520874"
       ry="4.5247064"
       transform="scale(-1,1)" /><ellipse
       style="display:inline;fill:#ff0000;fill-opacity:0.991676;stroke:none;stroke-width:0.553811;stroke-linejoin:miter;stroke-dasharray:none;stroke-dashoffset:0;stroke-opacity:1;paint-order:normal"
       id="path14-7-3-2-0-6-9-1-5-9-9-0-5-8"
       cx="-89.854073"
       cy="37.354465"
       inkscape:label="op2_cv_level"
       rx="3.4340017"
       ry="3.3619366"
       transform="scale(-1,1)" /><ellipse
       style="display:inline;fill:#ff0000;fill-opacity:0.991676;stroke:none;stroke-width:0.553811;stroke-linejoin:miter;stroke-dasharray:none;stroke-dashoffset:0;stroke-opacity:1;paint-order:normal"
       id="path14-7-3-2-0-6-9-1-5-9-9-0-5-0-8"
       cx="-78.011909"
       cy="37.354465"
       inkscape:label="op2_cv_mult"
       rx="3.4340017"
       ry="3.3619366"
       transform="scale(-1,1)" /><ellipse
       style="display:inline;fill:#00ff00;fill-opacity:0.991676;stroke:none;stroke-width:0.643432;stroke-linejoin:miter;stroke-dasharray:none;stroke-dashoffset:0;stroke-opacity:1;paint-order:normal"
       id="path14-7-3-2-0-6-9-1-5-9-9-04-7"
       cx="-21.757969"
       cy="103.48306"
       inkscape:label="op3_level"
       rx="3.9897113"
       ry="3.9059844"
       transform="scale(-1,1)" /><ellipse
       style="display:inline;fill:#00ff00;fill-opacity:0.991676;stroke:none;stroke-width:0.643432;stroke-linejoin:miter;stroke-dasharray:none;stroke-dashoffset:0;stroke-opacity:1;paint-order:normal"
       id="path14-7-3-2-0-6-9-1-5-9-9-0-8-6"
       cx="-9.9158049"
       cy="103.48306"
       inkscape:label="op3_mult"
       rx="3.9897113"
       ry="3.9059844"
       transform="scale(-1,1)" /><ellipse
       style="display:inline;fill:#00ff00;fill-opacity:0.991676;stroke:none;stroke-width:0.643432;stroke-linejoin:miter;stroke-dasharray:none;stroke-dashoffset:0;stroke-opacity:1;paint-order:normal"
       id="path14-7-3-2-0-6-9-1-5-9-9-0-8-6-4"
       cx="-40.851868"
       cy="109.25628"
       inkscape:label="voct"
       rx="3.9897113"
       ry="3.9059844"
       transform="scale(-1,1)" /><ellipse
       style="display:inline;fill:#0000ff;fill-opacity:0.991676;stroke:none;stroke-width:0.643432;stroke-linejoin:miter;stroke-dasharray:none;stroke-dashoffset:0;stroke-opacity:1;paint-order:normal"
       id="path14-7-3-2-0-6-9-1-5-9-9-0-8-6-4-0"
       cx="-59.945766"
       cy="109.25628"
       inkscape:label="audio"
       rx="3.9897113"
       ry="3.9059844"
       transform="scale(-1,1)" /><ellipse
       style="display:inline;fill:#00ff00;fill-opacity:0.991676;stroke:none;stroke-width:0.643432;stroke-linejoin:miter;stroke-dasharray:none;stroke-dashoffset:0;stroke-opacity:1;paint-order:normal"
       id="path14-7-3-2-0-6-9-1-5-9-9-04-7-0"
       cx="-90.35067"
       cy="103.48306"
       inkscape:label="op4_level"
       rx="3.9897113"
       ry="3.9059844"
       transform="scale(-1,1)" /><ellipse
       style="display:inline;fill:#00ff00;fill-opacity:0.991676;stroke:none;stroke-width:0.643432;stroke-linejoin:miter;stroke-dasharray:none;stroke-dashoffset:0;stroke-opacity:1;paint-order:normal"
       id="path14-7-3-2-0-6-9-1-5-9-9-0-8-6-9"
       cx="-78.508507"
       cy="103.48306"
       inkscape:label="op4_mult"
       rx="3.9897113"
       ry="3.9059844"
       transform="scale(-1,1)" /></g></svg>
