<?xml version="1.0" encoding="UTF-8" standalone="no"?>
<svg
   id="Layer_2"
   width="26.4"
   height="26.4"
   version="1.1"
   viewBox="0 0 26.4 26.4"
   sodipodi:docname="PushKnob_bg.svg"
   inkscape:version="1.4 (e7c3feb100, 2024-10-09)"
   xmlns:inkscape="http://www.inkscape.org/namespaces/inkscape"
   xmlns:sodipodi="http://sodipodi.sourceforge.net/DTD/sodipodi-0.dtd"
   xmlns="http://www.w3.org/2000/svg"
   xmlns:svg="http://www.w3.org/2000/svg">
  <defs
     id="defs12">
    <linearGradient
       id="linear-gradient"
       x1="-197.293"
       y1="7.1999998"
       x2="-209.707"
       y2="7.1999998"
       gradientTransform="matrix(0,-1,-1,0,15.7,-195)"
       gradientUnits="userSpaceOnUse">
      <stop
         offset="0"
         stop-color="#363636"
         id="stop1" />
      <stop
         offset="1"
         stop-color="#1a1a1a"
         id="stop2" />
    </linearGradient>
  </defs>
  <sodipodi:namedview
     id="namedview12"
     pagecolor="#ffffff"
     bordercolor="#000000"
     borderopacity="0.25"
     inkscape:showpageshadow="2"
     inkscape:pageopacity="0.0"
     inkscape:pagecheckerboard="0"
     inkscape:deskcolor="#d1d1d1"
     inkscape:zoom="16"
     inkscape:cx="24.84375"
     inkscape:cy="19.78125"
     inkscape:window-width="2038"
     inkscape:window-height="1676"
     inkscape:window-x="0"
     inkscape:window-y="0"
     inkscape:window-maximized="1"
     inkscape:current-layer="Layer_2" />
  <circle
     cx="13.2"
     cy="13.2"
     fill="#363636"
     id="circle3-3"
     style="font-variation-settings:normal;vector-effect:none;fill:#545454;fill-opacity:1;stroke-width:1.15344;stroke-linecap:butt;stroke-linejoin:miter;stroke-miterlimit:4;stroke-dasharray:none;stroke-dashoffset:0;stroke-opacity:1;-inkscape-stroke:none;stop-color:#000000"
     r="13.2" />
  <!-- Generator: Adobe Illustrator 29.2.1, SVG Export Plug-In . SVG Version: 2.1.0 Build 116)  -->
  <path
     d="M 13.2,0.73927669 C 6.3182823,0.73927669 0.73927669,6.3182823 0.73927669,13.2 c 0,0.138767 0.0160479,0.272815 0.0207679,0.410637 L 25.639956,12.789363 C 25.421893,6.0992757 19.942951,0.73927669 13.2,0.73927669 Z"
     fill="#ebebeb"
     id="path1"
     style="stroke-width:0.943994" />
  <path
     d="M 0.76004457,13.610637 C 0.97810722,20.300724 6.4570495,25.660723 13.2,25.660723 c 6.881718,0 12.460723,-5.579005 12.460723,-12.460723 0,-0.138767 -0.01605,-0.272815 -0.02077,-0.410637 z"
     fill="#bababa"
     id="path2"
     style="stroke-width:0.943994" />
  <circle
     cx="13.2"
     cy="13.2"
     fill="#818181"
     id="circle2"
     r="11.174339"
     style="fill:#979797;fill-opacity:1;stroke-width:0.913309" />
  <circle
     cx="13.2"
     cy="13.2"
     fill="#363636"
     id="circle3"
     style="font-variation-settings:normal;vector-effect:none;fill:#212121;fill-opacity:1;stroke-width:0.858957;stroke-linecap:butt;stroke-linejoin:miter;stroke-miterlimit:4;stroke-dasharray:none;stroke-dashoffset:0;stroke-opacity:1;-inkscape-stroke:none;stop-color:#000000"
     r="9.8298855" />
  <path
     d="m 13.199809,4.2625207 c -4.9358221,0 -8.9372904,4.0014682 -8.9372904,8.9372903 0,0.09954 0.011513,0.195673 0.014895,0.294523 L 22.122203,12.905287 C 21.965801,8.1069092 18.036101,4.2625207 13.199809,4.2625207 Z"
     fill="#ebebeb"
     id="path1-7-6"
     style="display:inline;fill:#919191;fill-opacity:1;stroke-width:0.677067" />
  <path
     d="m 4.2774141,13.494334 c 0.1564026,4.798377 4.0861018,8.642767 8.9223949,8.642767 4.935821,0 8.937288,-4.001469 8.937288,-8.93729 0,-0.09953 -0.01155,-0.195674 -0.01491,-0.294524 z"
     fill="#bababa"
     id="path2-9-3"
     style="display:inline;fill:#4c4c4c;fill-opacity:1;stroke-width:0.677067" />
</svg>
