<?xml version="1.0" encoding="UTF-8"?>
<svg xmlns="http://www.w3.org/2000/svg" width="42.52" height="42.52" version="1.1" xmlns:inkscape="http://www.inkscape.org/namespaces/inkscape" xmlns:sodipodi="http://sodipodi.sourceforge.net/DTD/sodipodi-0.dtd" xmlns:svg="http://www.w3.org/2000/svg" xmlns:xlink="http://www.w3.org/1999/xlink" viewBox="0 0 42.52 42.52">
  <!-- Generator: Adobe Illustrator 29.2.1, SVG Export Plug-In . SVG Version: 2.1.0 Build 116)  -->
  <g id="svg1" inkscape:version="1.3.1 (9b9bdc1480, 2023-11-25, custom)" sodipodi:docname="ShinyBigKnob_bg.svg">
    <sodipodi:namedview id="namedview1" bordercolor="#000000" borderopacity="0.25" inkscape:current-layer="layer1" inkscape:cx="11.59375" inkscape:cy="26.34375" inkscape:deskcolor="#d1d1d1" inkscape:document-units="mm" inkscape:pagecheckerboard="0" inkscape:pageopacity="0.0" inkscape:showpageshadow="2" inkscape:window-height="1588" inkscape:window-maximized="1" inkscape:window-width="4096" inkscape:window-x="0" inkscape:window-y="32" inkscape:zoom="16" pagecolor="#ffffff" showgrid="false" showguides="true"/>
    <g id="_x3C_defs">
      <inkscape:path-effect id="path-effect30" copytype="single_stretched" effect="skeletal" fuse_tolerance="0" hide_knot="false" is_visible="true" lpeversion="1" normal_offset="0" pattern="M 0,4.9921382 C 0,2.2364779 2.2364779,0 4.9921382,0 c 2.7556603,0 4.9921383,2.2364779 4.9921383,4.9921382 0,2.7556603 -2.236478,4.9921383 -4.9921383,4.9921383 C 2.2364779,9.9842765 0,7.7477985 0,4.9921382 Z" prop_scale="1" prop_units="false" scale_y_rel="false" spacing="0" tang_offset="0" vertical_pattern="false"/>
      <inkscape:path-effect id="path-effect29" copytype="single_stretched" effect="skeletal" fuse_tolerance="0" hide_knot="false" is_visible="true" lpeversion="1" normal_offset="0" pattern="M 0,4.9921382 C 0,2.2364779 2.2364779,0 4.9921382,0 c 2.7556603,0 4.9921383,2.2364779 4.9921383,4.9921382 0,2.7556603 -2.236478,4.9921383 -4.9921383,4.9921383 C 2.2364779,9.9842765 0,7.7477985 0,4.9921382 Z" prop_scale="1" prop_units="false" scale_y_rel="false" spacing="0" tang_offset="0" vertical_pattern="false"/>
      <inkscape:path-effect id="path-effect28" copytype="single_stretched" effect="skeletal" fuse_tolerance="0" hide_knot="false" is_visible="true" lpeversion="1" normal_offset="0" pattern="M 0,4.9921382 C 0,2.2364779 2.2364779,0 4.9921382,0 c 2.7556603,0 4.9921383,2.2364779 4.9921383,4.9921382 0,2.7556603 -2.236478,4.9921383 -4.9921383,4.9921383 C 2.2364779,9.9842765 0,7.7477985 0,4.9921382 Z" prop_scale="1" prop_units="false" scale_y_rel="false" spacing="0" tang_offset="0" vertical_pattern="false"/>
      <inkscape:path-effect id="path-effect27" apply_no_weight="true" apply_with_weight="true" effect="bspline" helper_size="0" is_visible="true" lpeversion="1.3" only_selected="false" steps="2" uniform="false" weight="33.333333"/>
      <inkscape:path-effect id="path-effect26" apply_no_weight="true" apply_with_weight="true" effect="bspline" helper_size="0" is_visible="true" lpeversion="1.3" only_selected="false" steps="2" uniform="false" weight="33.333333"/>
    </g>
    <path d="M21.292-.031C9.568-.031.064,9.473.064,21.197c0,.236.028.465.035.699l42.385-1.399C42.112,9.1,32.78-.031,21.292-.031Z" fill="#ebebeb"/>
    <path d="M.1,21.896c.372,11.397,9.705,20.528,21.192,20.528,11.724,0,21.228-9.504,21.228-21.228,0-.236-.028-.465-.035-.699L.1,21.896Z" fill="#bababa"/>
    <circle cx="21.292" cy="21.197" r="20.301" fill="#818181"/>
    <circle cx="21.292" cy="21.197" r="19.102" fill="#363636"/>
    <circle cx="21.292" cy="21.197" r="18.26" fill="#fff"/>
    <path d="M21.29,21.195l.03.095,17.259,4.429c.378-1.448.6-2.958.6-4.524,0-.199-.023-.392-.03-.589l-17.858.589h0Z" fill="#b6b6b6"/>
    <path d="M39.149,20.606c-.106-3.248-1.074-6.271-2.688-8.857l-15.17,9.447,17.858-.589Z" fill="#f8f8f8"/>
    <polygon points="21.2 21.254 21.32 21.285 21.292 21.197 21.2 21.254" fill="#b6b6b6"/>
    <path d="M21.29,21.195l15.17-9.447c-3.159-5.062-8.763-8.441-15.17-8.441-1.881,0-3.693.294-5.396.832l5.396,17.056h0Z" fill="#b6b6b6"/>
    <polygon points="21.292 21.197 21.292 21.197 21.292 21.197 21.292 21.197" fill="#b6b6b6"/>
    <polygon points="21.292 21.197 21.011 21.206 21.2 21.254 21.292 21.197 21.292 21.197" fill="#b6b6b6"/>
    <path d="M21.241,21.307l-15.071,9.385c3.159,5.062,8.763,8.441,15.17,8.441,1.881,0,3.692-.294,5.395-.832l-5.366-16.961-.129-.033Z" fill="#b6b6b6"/>
    <path d="M38.579,25.719l-17.259-4.429,5.366,16.961c5.824-1.841,10.34-6.586,11.893-12.532Z" fill="#7d7d7d"/>
    <path d="M21.34,21.245L15.944,4.189c-5.877,1.858-10.424,6.673-11.935,12.696l17.029,4.37.301-.01Z" fill="#7d7d7d"/>
    <path d="M21.039,21.255l-17.557.579c.106,3.248,1.074,6.271,2.688,8.858l15.071-9.385-.202-.052Z" fill="#ebebeb"/>
    <path d="M4.009,16.884c-.351,1.398-.558,2.853-.558,4.36,0,.199.023.392.03.589l17.557-.579-17.029-4.37Z" fill="#b6b6b6"/>
    <path d="M42.52,20.496c-.126-3.861-1.277-7.454-3.195-10.528l-18.032,11.229,21.228-.701Z" fill="#f8f8f8" opacity=".56"/>
  </g>
</svg>