<?xml version="1.0" encoding="UTF-8"?>
<svg id="Layer_1" xmlns="http://www.w3.org/2000/svg" width="26.4" height="26.4" version="1.1" xmlns:inkscape="http://www.inkscape.org/namespaces/inkscape" xmlns:sodipodi="http://sodipodi.sourceforge.net/DTD/sodipodi-0.dtd" xmlns:svg="http://www.w3.org/2000/svg" viewBox="0 0 26.4 26.4">
  <!-- Generator: Adobe Illustrator 29.2.1, SVG Export Plug-In . SVG Version: 2.1.0 Build 116)  -->
  <g id="svg1" inkscape:version="1.2.2 (b0a8486541, 2022-12-01)" sodipodi:docname="ShinyKnob.svg">
    <sodipodi:namedview id="namedview1" bordercolor="#000000" borderopacity="0.25" inkscape:current-layer="layer2" inkscape:cx="33.21875" inkscape:cy="15.03125" inkscape:deskcolor="#d1d1d1" inkscape:document-units="mm" inkscape:pagecheckerboard="0" inkscape:pageopacity="0.0" inkscape:showpageshadow="2" inkscape:window-height="1588" inkscape:window-maximized="1" inkscape:window-width="4096" inkscape:window-x="0" inkscape:window-y="32" inkscape:zoom="32" pagecolor="#ffffff" showgrid="false" showguides="true">
      <sodipodi:guide id="guide35013" inkscape:locked="false" orientation="0,-1" position="4.4207405e-05,4.6612584"/>
      <sodipodi:guide id="guide35015" inkscape:locked="false" orientation="1,0" position="4.6609979,8.8476554"/>
      <sodipodi:guide id="guide112024" inkscape:locked="false" orientation="0,-1" position="4.3703041,8.7425005"/>
    </sodipodi:namedview>
    <g id="_x3C_defs">
      <inkscape:path-effect id="path-effect30" copytype="single_stretched" effect="skeletal" fuse_tolerance="0" hide_knot="false" is_visible="true" lpeversion="1" normal_offset="0" pattern="M 0,4.9921382 C 0,2.2364779 2.2364779,0 4.9921382,0 c 2.7556603,0 4.9921383,2.2364779 4.9921383,4.9921382 0,2.7556603 -2.236478,4.9921383 -4.9921383,4.9921383 C 2.2364779,9.9842765 0,7.7477985 0,4.9921382 Z" prop_scale="1" prop_units="false" scale_y_rel="false" spacing="0" tang_offset="0" vertical_pattern="false"/>
      <inkscape:path-effect id="path-effect29" copytype="single_stretched" effect="skeletal" fuse_tolerance="0" hide_knot="false" is_visible="true" lpeversion="1" normal_offset="0" pattern="M 0,4.9921382 C 0,2.2364779 2.2364779,0 4.9921382,0 c 2.7556603,0 4.9921383,2.2364779 4.9921383,4.9921382 0,2.7556603 -2.236478,4.9921383 -4.9921383,4.9921383 C 2.2364779,9.9842765 0,7.7477985 0,4.9921382 Z" prop_scale="1" prop_units="false" scale_y_rel="false" spacing="0" tang_offset="0" vertical_pattern="false"/>
      <inkscape:path-effect id="path-effect28" copytype="single_stretched" effect="skeletal" fuse_tolerance="0" hide_knot="false" is_visible="true" lpeversion="1" normal_offset="0" pattern="M 0,4.9921382 C 0,2.2364779 2.2364779,0 4.9921382,0 c 2.7556603,0 4.9921383,2.2364779 4.9921383,4.9921382 0,2.7556603 -2.236478,4.9921383 -4.9921383,4.9921383 C 2.2364779,9.9842765 0,7.7477985 0,4.9921382 Z" prop_scale="1" prop_units="false" scale_y_rel="false" spacing="0" tang_offset="0" vertical_pattern="false"/>
      <inkscape:path-effect id="path-effect27" apply_no_weight="true" apply_with_weight="true" effect="bspline" helper_size="0" is_visible="true" lpeversion="1.3" only_selected="false" steps="2" uniform="false" weight="33.333333"/>
      <inkscape:path-effect id="path-effect26" apply_no_weight="true" apply_with_weight="true" effect="bspline" helper_size="0" is_visible="true" lpeversion="1.3" only_selected="false" steps="2" uniform="false" weight="33.333333"/>
    </g>
    <g id="layer7" inkscape:groupmode="layer" inkscape:label="Layer 3" display="none">
      <path id="path25465" d="M5.8,2.9l15.4,20.2c3-2.4,4.7-6,4.7-9.9C25.9,6.2,20.2.5,13.2.5c-2.7,0-5.3.8-7.4,2.4Z" fill="#888"/>
      <path id="path16486" d="M5.8,2.9C2.5,5.3.5,9.1.5,13.2c0,7,5.7,12.7,12.7,12.7h0c2.9,0,5.7-1,8-2.8L5.8,2.9Z" fill="#616161"/>
      <circle id="path28624" cx="13.2" cy="13.2" r="12.2" fill="#fff" fill-opacity=".7"/>
      <circle id="circle30885" cx="13.2" cy="13.2" r="12" fill="#383838" fill-opacity=".6"/>
      <path id="path47-7-6-7-1-5-4" d="M13.1,13.1h0c0,.1,0,0,0,0h-.1.1Z" inkscape:label="circle1" fill="#ccc"/>
      <path id="path14223" d="M13.2,13.2h0v.1h0v-.1Z" inkscape:label="circle1" fill="#ccc"/>
      <path id="path14219" d="M13.2,13.2h0Z" inkscape:label="circle1" fill="#ccc"/>
      <g id="g25407">
        <path id="path14231" d="M4.4,6c1.1.9,2.3,1.9,3.6,2.9,1.6,1.3,3.3,2.7,5.1,4.2L6.7,3.9c-.8.6-1.6,1.3-2.3,2.1Z" inkscape:label="circle1" fill="#afafaf"/>
        <path id="path14229" d="M3.1,18.4l10-5.2h0c-1.7-1.5-3.4-2.9-5.1-4.2-1.3-1.1-2.5-2-3.6-2.9-1.7,2-2.6,4.6-2.6,7.2,0,1.8.4,3.6,1.3,5.2v-.1Z" inkscape:label="circle1" fill="#5b5b5b"/>
        <path id="path14227" d="M13.2,13.3h0l-10,5.2c2,3.8,5.8,6.1,10.1,6.1.8,0,1.5,0,2.3-.2l-2.3-11.1h-.1Z" inkscape:label="circle1" fill="#9e9e9e"/>
        <path id="path14225" d="M13.2,13.3l2.3,11.1c1.5-.3,2.9-.9,4.2-1.8l-6.4-9.3h-.1Z" inkscape:label="circle1" fill="#ddd"/>
        <path id="path14221" d="M13.2,13.2h0l6.4,9.4c.9-.6,1.7-1.3,2.3-2.2-2.6-2.1-5.4-4.4-8.5-7,0,0-.2-.1-.3-.2h.1Z" inkscape:label="circle1" fill="#9e9e9e"/>
        <path id="path14217" d="M13.2,13.2h0s.2.2.3.2c3.1,2.5,6,4.9,8.5,7,1.7-2,2.6-4.6,2.6-7.2,0-1.8-.5-3.7-1.3-5.3,0,0-10.1,5.3-10.1,5.3Z" inkscape:label="circle1" fill="#5b5b5b"/>
        <path id="path14215" d="M10.9,2.1c-1.5.3-3,.9-4.2,1.8l6.4,9.2h0L10.8,2l.1.1Z" inkscape:label="circle1" fill="#ddd"/>
        <path id="path14213" d="M10.9,2.1l2.3,11.1,10.1-5.3c-2-3.7-5.8-6.1-10.1-6.1-.8,0-1.5,0-2.3.2v.1Z" inkscape:label="circle1" fill="#afafaf"/>
      </g>
    </g>
    <g id="layer2" inkscape:groupmode="layer" inkscape:label="Layer 2">
      <rect id="rect114942" x="12.55" y="1.6" width="1.3" height="11.6" fill="#333"/>
    </g>
  </g>
</svg>