<?xml version="1.0" encoding="UTF-8"?>
<svg xmlns="http://www.w3.org/2000/svg" width="26.4" height="26.4" version="1.1" xmlns:inkscape="http://www.inkscape.org/namespaces/inkscape" xmlns:sodipodi="http://sodipodi.sourceforge.net/DTD/sodipodi-0.dtd" xmlns:svg="http://www.w3.org/2000/svg" viewBox="0 0 26.4 26.4">
  <!-- Generator: Adobe Illustrator 29.2.1, SVG Export Plug-In . SVG Version: 2.1.0 Build 116)  -->
  <g id="svg1" inkscape:version="1.2.2 (b0a8486541, 2022-12-01)" sodipodi:docname="ShinyKnob_bg.svg">
    <sodipodi:namedview id="namedview1" bordercolor="#000000" borderopacity="0.25" inkscape:current-layer="layer1" inkscape:cx="22.25" inkscape:cy="23.8125" inkscape:deskcolor="#d1d1d1" inkscape:document-units="mm" inkscape:pagecheckerboard="0" inkscape:pageopacity="0.0" inkscape:showpageshadow="2" inkscape:window-height="1588" inkscape:window-maximized="1" inkscape:window-width="4096" inkscape:window-x="0" inkscape:window-y="32" inkscape:zoom="16" pagecolor="#ffffff" showgrid="false" showguides="true">
      <sodipodi:guide id="guide4876" inkscape:locked="false" orientation="0,-1" position="0,4.670816"/>
      <sodipodi:guide id="guide4882" inkscape:locked="false" orientation="1,0" position="4.6484962,4.6706192"/>
    </sodipodi:namedview>
    <g id="_x3C_defs">
      <inkscape:path-effect id="path-effect30" copytype="single_stretched" effect="skeletal" fuse_tolerance="0" hide_knot="false" is_visible="true" lpeversion="1" normal_offset="0" pattern="M 0,4.9921382 C 0,2.2364779 2.2364779,0 4.9921382,0 c 2.7556603,0 4.9921383,2.2364779 4.9921383,4.9921382 0,2.7556603 -2.236478,4.9921383 -4.9921383,4.9921383 C 2.2364779,9.9842765 0,7.7477985 0,4.9921382 Z" prop_scale="1" prop_units="false" scale_y_rel="false" spacing="0" tang_offset="0" vertical_pattern="false"/>
      <inkscape:path-effect id="path-effect29" copytype="single_stretched" effect="skeletal" fuse_tolerance="0" hide_knot="false" is_visible="true" lpeversion="1" normal_offset="0" pattern="M 0,4.9921382 C 0,2.2364779 2.2364779,0 4.9921382,0 c 2.7556603,0 4.9921383,2.2364779 4.9921383,4.9921382 0,2.7556603 -2.236478,4.9921383 -4.9921383,4.9921383 C 2.2364779,9.9842765 0,7.7477985 0,4.9921382 Z" prop_scale="1" prop_units="false" scale_y_rel="false" spacing="0" tang_offset="0" vertical_pattern="false"/>
      <inkscape:path-effect id="path-effect28" copytype="single_stretched" effect="skeletal" fuse_tolerance="0" hide_knot="false" is_visible="true" lpeversion="1" normal_offset="0" pattern="M 0,4.9921382 C 0,2.2364779 2.2364779,0 4.9921382,0 c 2.7556603,0 4.9921383,2.2364779 4.9921383,4.9921382 0,2.7556603 -2.236478,4.9921383 -4.9921383,4.9921383 C 2.2364779,9.9842765 0,7.7477985 0,4.9921382 Z" prop_scale="1" prop_units="false" scale_y_rel="false" spacing="0" tang_offset="0" vertical_pattern="false"/>
      <inkscape:path-effect id="path-effect27" apply_no_weight="true" apply_with_weight="true" effect="bspline" helper_size="0" is_visible="true" lpeversion="1.3" only_selected="false" steps="2" uniform="false" weight="33.333333"/>
      <inkscape:path-effect id="path-effect26" apply_no_weight="true" apply_with_weight="true" effect="bspline" helper_size="0" is_visible="true" lpeversion="1.3" only_selected="false" steps="2" uniform="false" weight="33.333333"/>
    </g>
    <g id="layer1" inkscape:groupmode="layer" inkscape:label="Layer 1">
      <path id="path93532" d="M1.1,18.5L25.3,7.9c2.5,5.7.6,12.5-4.5,16.1-6,4.2-14.2,2.8-18.4-3.2-.5-.7-.9-1.5-1.3-2.3Z" style="fill: #686868;"/>
      <path id="path94250" d="M24,5.6c.5.7,1,1.5,1.3,2.3L1.1,18.5C-1.4,12.8.5,6,5.6,2.4,11.6-1.8,19.8-.4,24,5.6Z" style="fill: #d7d7d7;"/>
      <circle id="path94305" cx="13.2" cy="13.2" r="12.3" style="fill: #818181;"/>
      <circle id="circle94307" cx="13.2" cy="13.2" r="11.6" style="fill: #363636;"/>
      <circle id="circle943071" data-name="circle94307" cx="13.2" cy="13.2" r="10.8" style="fill: #fff;"/>
      <circle id="circle943072" data-name="circle94307" cx="13.2" cy="13.2" r="10.5" style="fill: #5c5c5c;"/>
      <path id="path14215-2-7" d="M25.3,7.9c.7,1.7,1.1,3.5,1.1,5.3h-13.1c0,0,0,0-.1,0h0s12.1-5.3,12.1-5.3Z" inkscape:label="circle1" style="fill: #bababa; fill-opacity: .4;"/>
      <g id="g25407">
        <path id="path14231" d="M23,15.9c-1.3-.3-2.6-.7-4-1.1-1.8-.5-3.7-1-5.7-1.6h10.1c0,.9-.1,1.8-.4,2.7Z" inkscape:label="circle1" style="fill: #b6b6b6;"/>
        <path id="path14229" d="M14.6,23.3l-1.3-10.1h0c1.9.5,3.9,1.1,5.7,1.6,1.5.4,2.8.8,4,1.1-.6,2.3-2,4.3-3.9,5.6-1.3.9-2.9,1.5-4.5,1.8Z" inkscape:label="circle1" style="fill: #8d8d8d;"/>
        <path id="path14227" d="M13.1,13.3h0s1.3,10.1,1.3,10.1c-3.8.5-7.5-1.1-9.7-4.2-.4-.6-.7-1.2-1-1.8l9.3-4.1Z" inkscape:label="circle1" style="fill: #b6b6b6;"/>
        <path id="path14225" d="M13.1,13.3l-9.3,4.1c-.6-1.3-.8-2.6-.9-4h10.1Z" inkscape:label="circle1" style="fill: #ebebeb;"/>
        <path id="path14221" d="M13.2,13.2h0s-10.1.1-10.1.1c0-1,.1-1.9.4-2.8,2.9.8,6.1,1.7,9.5,2.6.1,0,.2,0,.3,0h0Z" inkscape:label="circle1" style="fill: #b6b6b6;"/>
        <path id="path14217" d="M13.2,13.2h0c-.1,0-.2,0-.3,0-3.5-1-6.7-1.9-9.5-2.6.6-2.3,2-4.3,3.9-5.6,1.4-1,2.9-1.6,4.6-1.8l1.3,10.1Z" inkscape:label="circle1" style="fill: #8d8d8d;"/>
        <path id="path14215" d="M22.5,9.1c.6,1.3.8,2.7.9,4.1h-10.1c0,0,0,0-.1,0h0s9.3-4.1,9.3-4.1Z" inkscape:label="circle1" style="fill: #f8f8f8;"/>
        <path id="path14215-2" d="M22.5,9.1c.6,1.3.8,2.7.9,4.1h-10.1c0,0,0,0-.1,0h0s9.3-4.1,9.3-4.1Z" inkscape:label="circle1" style="fill: #f8f8f8;"/>
        <path id="path14213" d="M22.5,9.1l-9.3,4.1-1.3-10.1c3.8-.5,7.5,1.1,9.7,4.2.4.6.7,1.2,1,1.8Z" inkscape:label="circle1" style="fill: #b6b6b6;"/>
      </g>
    </g>
  </g>
</svg>