<?xml version="1.0" encoding="UTF-8"?>
<svg id="Layer_2" xmlns="http://www.w3.org/2000/svg" width="26.4" height="26.4" version="1.1" viewBox="0 0 26.4 26.4">
  <!-- Generator: Adobe Illustrator 29.2.1, SVG Export Plug-In . SVG Version: 2.1.0 Build 116)  -->
  <path d="M13.2,0C5.91,0,0,5.91,0,13.2c0,.147.017.289.022.435l26.356-.87C26.147,5.678,20.343,0,13.2,0Z" fill="#ebebeb"/>
  <path d="M.022,13.635c.231,7.087,6.035,12.765,13.178,12.765,7.29,0,13.2-5.91,13.2-13.2,0-.147-.017-.289-.022-.435L.022,13.635Z" fill="#bababa"/>
  <circle cx="13.2" cy="13.2" r="12.235" fill="#818181"/>
  <circle cx="13.2" cy="13.2" r="11.444" fill="#363636"/>
  <circle cx="13.2" cy="13.2" r="10.748" fill="#fff"/>
  <path d="M13.2,13.2l.017.055,9.995,2.565c.219-.838.347-1.713.347-2.62,0-.115-.013-.227-.017-.341l-10.342.341h0Z" fill="#b6b6b6"/>
  <path d="M23.542,12.859c-.061-1.881-.622-3.632-1.557-5.13l-8.786,5.471,10.342-.341Z" fill="#f8f8f8"/>
  <polygon points="13.143 13.236 13.217 13.255 13.2 13.2 13.143 13.236" fill="#b6b6b6"/>
  <path d="M13.2,13.2l8.786-5.471c-1.83-2.932-5.075-4.889-8.786-4.889-1.089,0-2.138.17-3.125.482l3.125,9.878h0Z" fill="#b6b6b6"/>
  <polygon points="13.2 13.2 13.2 13.2 13.2 13.2 13.2 13.2" fill="#b6b6b6"/>
  <polygon points="13.2 13.2 13.026 13.206 13.143 13.236 13.2 13.2 13.2 13.2" fill="#b6b6b6"/>
  <path d="M13.143,13.236l-8.728,5.435c1.83,2.932,5.075,4.889,8.786,4.889,1.089,0,2.138-.17,3.125-.482l-3.107-9.823-.075-.019Z" fill="#b6b6b6"/>
  <path d="M23.212,15.82l-9.995-2.565,3.107,9.823c3.373-1.066,5.988-3.814,6.888-7.258Z" fill="#8d8d8d"/>
  <path d="M13.2,13.2l-3.125-9.878c-3.404,1.076-6.037,3.865-6.912,7.353l9.862,2.531.174-.006Z" fill="#8d8d8d"/>
  <path d="M13.026,13.206l-10.168.336c.061,1.881.622,3.632,1.557,5.13l8.728-5.435-.117-.03Z" fill="#ebebeb"/>
  <path d="M3.163,10.675c-.203.81-.323,1.653-.323,2.525,0,.115.013.227.017.341l10.168-.336-9.862-2.531Z" fill="#b6b6b6"/>
  <path d="M26.4,12.764c-.078-2.401-.794-4.635-1.987-6.547l-11.213,6.983,13.2-.436Z" fill="#f8f8f8" opacity=".56"/>
</svg>